<svg width="32" height="32" viewBox="0 0 32 32" fill="none" xmlns="http://www.w3.org/2000/svg" class="pointer-events-none w-6 h-6">
     <path d="M5.94197 17.9925L15.2564 26.334C15.3282 26.3983 15.3641 26.4305 15.3975 26.4557C15.7541 26.7249 16.2459 26.7249 16.6025 26.4557C16.6359 26.4305 16.6718 26.3983 16.7436 26.3341L26.058 17.9925C28.8244 15.5151 29.1565 11.3015 26.8124 8.42125L26.5675 8.12029C23.8495 4.78056 18.5906 5.35863 16.663 9.20902C16.3896 9.75505 15.6104 9.75505 15.337 9.20902C13.4094 5.35863 8.1505 4.78056 5.43249 8.12028L5.18755 8.42125C2.84352 11.3015 3.17564 15.5151 5.94197 17.9925Z"
        stroke-width="1.5" stroke="white" fill="#9ca3afb4">
    </path>
</svg>