<svg
    width="40px"
    height="40px"
    viewBox="0 0 32 32"
    fill="none"
    xmlns="http://www.w3.org/2000/svg"
    >
    <path
        fill-rule="evenodd"
        clip-rule="evenodd"
        d="M15.728 20.4461C13.6481 20.4461 11.9619 18.7599 11.9619 16.68C11.9619 14.6001 13.6481 12.9138 15.728 12.9138C17.8079 12.9138 19.4942 14.6001 19.4942 16.68C19.4942 18.7599 17.8079 20.4461 15.728 20.4461Z"
        fill="#C2C6CE"
    ></path>
    <path
        fill-rule="evenodd"
        clip-rule="evenodd"
        d="M10.4564 7.32295C10.9376 6.00587 11.5097 5.15997 12.8118 5.15997H17.9241C19.2253 5.15997 19.7975 6.00463 20.2785 7.32003H20.7897C24.7543 7.32003 27.968 10.4192 27.968 14.2417V19.119C27.968 22.9409 24.7543 26.04 20.7897 26.04H10.6669C6.7023 26.04 3.48798 22.9409 3.48798 19.119V14.2417C3.48798 10.487 6.58918 7.4303 10.4564 7.32295ZM21.3772 16.68C21.3772 19.8001 18.8481 22.3292 15.728 22.3292C12.6079 22.3292 10.0788 19.8001 10.0788 16.68C10.0788 13.5599 12.6079 11.0308 15.728 11.0308C18.8481 11.0308 21.3772 13.5599 21.3772 16.68ZM21.5988 11.88C21.5988 12.4 22.0204 12.8216 22.5403 12.8216C23.0603 12.8216 23.4819 12.4 23.4819 11.88C23.4819 11.36 23.0603 10.9385 22.5403 10.9385C22.0204 10.9385 21.5988 11.36 21.5988 11.88Z"
        fill="#C2C6CE"
    ></path>
    </svg>