<svg
                            xmlns="http://www.w3.org/2000/svg"
                            width="50"
                            height="20"
                            viewBox="0 0 50 20"
                            fill="none"
                          >
                            <path
                              fill-rule="evenodd"
                              clip-rule="evenodd"
                              d="M7.51492 2C3.3647 2 0 4.64484 0 7.90661C0 9.84455 1.18731 11.5641 3.02104 12.6413C2.83002 13.4093 2.33737 15.3834 2.27107 15.5978C2.1884 15.8644 2.1678 16.6436 2.97307 16.1105C3.60651 15.6909 5.4518 14.4102 6.54233 13.7625C6.86117 13.795 7.18536 13.8132 7.51492 13.8132C11.6654 13.8132 15.0298 11.1689 15.0298 7.90661C15.0298 4.64484 11.6654 2 7.51492 2Z"
                              fill="#000"
                            ></path>
                            <path
                              fill-rule="evenodd"
                              clip-rule="evenodd"
                              d="M21.0479 3.31241C22.5654 1.99952 24.5165 1.805 25.9411 2.72772C27.6478 3.83348 28.1089 5.48104 28.1089 7.61911C28.1089 10.0187 26.9941 11.5878 26.4673 12.08C25.9411 12.5722 24.7941 13.3718 23.5862 13.3718H21.4198V17.1558H18.5085V2.48163H20.6146C20.6146 2.48163 20.8753 3.02988 21.0479 3.31241ZM21.4661 11.2476H22.6043C23.1618 11.2476 25.1513 10.7406 25.1513 7.86423C25.1513 7.18761 25.0604 6.47931 24.8728 5.96441C24.5164 4.98787 23.6262 4.46484 22.999 4.46484C22.3024 4.46484 21.8456 4.64199 21.4661 4.94162V11.2476Z"
                              fill="#000"
                            ></path>
                            <path
                              fill-rule="evenodd"
                              clip-rule="evenodd"
                              d="M29.7965 3.32774C29.7965 3.32774 31.2934 2.24609 33.8173 2.24609C35.9024 2.24609 36.759 2.96392 37.2649 3.59963C37.746 4.20422 38.1269 5.09667 38.1269 6.39891V13.08H35.8663V12.1261C35.8663 12.1261 35.4244 12.5457 34.4882 12.9569C33.5075 13.3875 31.8351 13.8337 30.4469 12.7725C29.0497 11.7043 29.2461 9.30134 29.5954 8.61911C30.0753 7.68097 30.9579 6.65033 33.3114 6.65033H35.3398V5.74303C35.3398 5.18917 34.7566 4.63531 33.6107 4.63531C32.3295 4.63531 31.7764 4.82815 30.7926 5.27101L29.7965 3.32774ZM31.9178 9.97264C31.9178 11.2553 33.0078 11.2334 33.3655 11.2034C34.4546 11.1118 35.3037 10.4085 35.3037 10.4085L35.2935 8.49606H33.8791C33.2803 8.49606 31.9178 8.71133 31.9178 9.97264Z"
                              fill="#000"
                            ></path>
                            <path
                              fill-rule="evenodd"
                              clip-rule="evenodd"
                              d="M47.0614 2.24609L44.7697 10.3572L42.2303 2.24609L39.3811 3.06651C39.3811 3.06651 42.8807 12.4493 43.0045 12.8493C43.1284 13.2493 42.9995 13.7078 42.7258 14.172C42.3539 14.8027 40.8985 16.2024 40.8985 16.2024L42.7771 17.8651C42.7771 17.8651 43.6343 17.1767 44.522 16.1102C45.2646 15.218 46.1576 13.279 46.4601 12.5328C47.319 10.4141 49.8793 3.06651 49.8793 3.06651L47.0614 2.24609Z"
                              fill="#000"
                            ></path>
                          </svg>